<?xml version="1.0" standalone="no"?><!DOCTYPE svg PUBLIC "-//W3C//DTD SVG 1.1//EN" "http://www.w3.org/Graphics/SVG/1.1/DTD/svg11.dtd"><svg t="1720836690069" class="icon" viewBox="0 0 1024 1024" version="1.1" xmlns="http://www.w3.org/2000/svg" p-id="8083" xmlns:xlink="http://www.w3.org/1999/xlink" width="200" height="200"><path d="M512 512m-469.333333 0a469.333333 469.333333 0 1 0 938.666666 0 469.333333 469.333333 0 1 0-938.666666 0Z" fill="#2c2c2c" p-id="8084"></path><path d="M388.394667 263.509333l82.986666 83.029334h81.194667l83.029333-82.986667a25.6 25.6 0 0 1 36.224 36.224l-46.848 46.762667H678.4a89.6 89.6 0 0 1 89.6 89.6v204.8a89.6 89.6 0 0 1-89.6 89.6H345.6a89.6 89.6 0 0 1-89.6-89.6v-204.8a89.6 89.6 0 0 1 89.6-89.6h53.376L352.170667 299.733333a25.6 25.6 0 0 1 36.266666-36.266666v0.042666zM678.4 397.738667H345.6a38.4 38.4 0 0 0-38.229333 34.730666l-0.170667 3.669334v204.8a38.4 38.4 0 0 0 34.730667 38.229333l3.669333 0.170667h332.8a38.4 38.4 0 0 0 38.229333-34.688l0.170667-3.712v-204.8a38.4 38.4 0 0 0-38.4-38.4z m-268.8 76.8a25.6 25.6 0 0 1 25.6 25.6v51.2a25.6 25.6 0 0 1-51.2 0v-51.2a25.6 25.6 0 0 1 25.6-25.6z m204.8 0a25.6 25.6 0 0 1 25.6 25.6v51.2a25.6 25.6 0 0 1-51.2 0v-51.2a25.6 25.6 0 0 1 25.6-25.6z" fill="#FFFFFF" p-id="8085"></path></svg>